<?xml version="1.0" standalone="no"?>
<!DOCTYPE svg PUBLIC "-//W3C//DTD SVG 20010904//EN"
 "http://www.w3.org/TR/2001/REC-SVG-20010904/DTD/svg10.dtd">
<svg version="1.0" xmlns="http://www.w3.org/2000/svg"
 width="512.000000pt" height="512.000000pt" viewBox="0 0 512.000000 512.000000"
 preserveAspectRatio="xMidYMid meet">
<metadata>
Created by potrace 1.16, written by Peter Selinger 2001-2019
</metadata>
<g transform="translate(0.000000,512.000000) scale(0.100000,-0.100000)"
fill="#000000" stroke="none">
<path d="M2460 4754 c-318 -58 -547 -266 -616 -560 l-18 -74 -494 0 c-433 0
-498 -2 -528 -16 -90 -43 -100 -178 -18 -243 24 -19 40 -21 175 -21 l148 0 5
-42 c3 -24 55 -726 116 -1560 61 -835 115 -1540 120 -1568 31 -164 141 -274
300 -299 86 -14 1718 -14 1814 -1 163 24 274 133 306 300 5 28 59 733 120
1568 61 834 113 1536 116 1560 l5 42 148 0 c135 0 151 2 175 21 82 65 72 200
-18 243 -30 14 -95 16 -528 16 l-494 0 -18 74 c-62 265 -266 471 -541 546 -43
12 -234 22 -275 14z m283 -321 c117 -55 218 -172 252 -290 l6 -23 -441 0 -441
0 6 23 c29 100 115 213 205 265 85 50 136 63 245 59 88 -2 108 -6 168 -34z
m977 -611 c0 -36 -220 -3028 -226 -3075 -9 -73 -28 -90 -115 -98 -98 -10
-1555 -10 -1643 0 -81 9 -101 26 -110 98 -6 47 -226 3039 -226 3075 0 17 48
18 1160 18 1112 0 1160 -1 1160 -18z"/>
<path d="M1873 3289 c-36 -10 -80 -58 -90 -97 -11 -44 86 -1710 102 -1748 40
-96 201 -99 250 -5 8 17 15 55 15 88 0 32 -20 420 -45 862 -49 870 -45 839
-105 882 -32 23 -86 31 -127 18z"/>
<path d="M2516 3290 c-15 -5 -37 -17 -48 -27 -50 -45 -48 -14 -48 -933 0 -950
-3 -900 63 -940 42 -26 112 -26 154 0 66 40 63 -11 63 942 0 838 -1 864 -20
895 -34 56 -102 82 -164 63z"/>
<path d="M3156 3290 c-35 -11 -63 -36 -82 -72 -11 -21 -26 -231 -59 -830 -25
-442 -45 -829 -45 -861 0 -69 19 -111 63 -137 41 -26 112 -26 153 -1 62 38 59
13 111 940 47 853 47 853 27 889 -34 63 -102 92 -168 72z"/>
</g>
</svg>
