<?xml version="1.0" standalone="no"?>
<!DOCTYPE svg PUBLIC "-//W3C//DTD SVG 20010904//EN"
 "http://www.w3.org/TR/2001/REC-SVG-20010904/DTD/svg10.dtd">
<svg version="1.0" xmlns="http://www.w3.org/2000/svg"
 width="1000.000000pt" height="1079.000000pt" viewBox="0 0 1000.000000 1079.000000"
 preserveAspectRatio="xMidYMid meet">
<metadata>
Created by potrace 1.16, written by Peter Selinger 2001-2019
</metadata>
<g transform="translate(0.000000,1079.000000) scale(0.100000,-0.100000)"
fill="#000000" stroke="none">
<path d="M2120 7904 c-98 -21 -175 -52 -255 -105 -163 -106 -273 -256 -327
-446 -29 -101 -31 -285 -5 -383 24 -88 84 -212 140 -285 25 -33 673 -686 1439
-1452 1459 -1457 1445 -1444 1593 -1506 178 -75 412 -75 590 0 148 62 135 50
1593 1506 766 766 1414 1419 1439 1452 59 78 108 175 135 272 31 109 31 285 0
396 -80 283 -302 493 -584 551 -199 41 -414 1 -584 -109 -39 -25 -433 -411
-1176 -1154 l-1118 -1116 -1117 1116 c-743 741 -1138 1129 -1177 1154 -168
109 -394 151 -586 109z"/>
<path d="M0 400 l0 -400 5000 0 5000 0 0 400 0 400 -5000 0 -5000 0 0 -400z
m1400 105 c19 -10 27 -20 24 -30 -5 -13 -9 -13 -34 0 -36 18 -61 19 -84 2 -28
-21 -9 -45 49 -62 87 -25 108 -74 54 -127 -29 -29 -33 -30 -90 -25 -68 6 -72
8 -64 29 5 13 12 14 40 5 50 -15 100 1 100 33 0 17 -8 28 -24 35 -103 42 -120
60 -107 109 11 43 82 59 136 31z m582 -45 l3 -61 35 30 c19 17 44 30 55 31 16
0 12 -7 -20 -40 l-39 -40 42 -60 c40 -57 41 -60 20 -60 -16 0 -32 14 -53 45
-16 25 -33 45 -37 45 -5 0 -8 -20 -8 -45 0 -38 -3 -45 -20 -45 -19 0 -20 7
-20 130 0 122 1 130 20 130 16 0 19 -8 22 -60z m-1355 -22 c12 -13 23 -36 25
-53 l3 -30 -67 -3 c-75 -3 -85 -15 -47 -53 17 -17 30 -20 65 -16 43 4 59 -5
28 -17 -45 -17 -106 3 -123 41 -44 96 50 202 116 131z m464 -7 c23 -23 29 -38
29 -71 0 -33 -6 -48 -29 -71 -40 -40 -82 -39 -123 1 -28 28 -30 36 -25 78 10
87 89 121 148 63z m624 4 c20 -19 25 -34 25 -75 0 -63 -30 -100 -82 -100 -67
0 -107 62 -87 135 18 66 97 88 144 40z"/>
<path d="M986 424 c-50 -50 -21 -144 44 -144 48 0 80 50 66 104 -13 53 -75 75
-110 40z"/>
</g>
</svg>
