<?xml version="1.0" standalone="no"?>
<!DOCTYPE svg PUBLIC "-//W3C//DTD SVG 20010904//EN"
 "http://www.w3.org/TR/2001/REC-SVG-20010904/DTD/svg10.dtd">
<svg version="1.0" xmlns="http://www.w3.org/2000/svg"
 width="981.000000pt" height="981.000000pt" viewBox="0 0 981.000000 981.000000"
 preserveAspectRatio="xMidYMid meet">
<metadata>
Created by potrace 1.16, written by Peter Selinger 2001-2019
</metadata>
<g transform="translate(0.000000,981.000000) scale(0.100000,-0.100000)"
fill="#000000" stroke="none">
<path d="M8405 9793 c-129 -27 -218 -93 -465 -344 l-215 -218 35 -38 c253
-278 414 -443 895 -917 l565 -558 122 113 c227 209 352 340 395 414 78 131 91
242 44 365 -18 48 -58 95 -318 366 -164 171 -365 375 -447 453 -164 156 -381
336 -432 357 -31 13 -133 17 -179 7z"/>
<path d="M1444 9479 c-604 -46 -1175 -508 -1363 -1102 -71 -222 -65 61 -68
-3217 -4 -3184 2 -3787 35 -3930 66 -279 201 -525 401 -733 196 -203 435 -354
683 -431 227 -71 -70 -66 3657 -66 3288 0 3368 1 3446 19 303 73 569 224 801
456 238 237 379 500 440 820 24 125 36 1892 27 3780 l-8 1560 -472 -472 -473
-471 -2 -1978 c-3 -1903 -4 -1981 -22 -2044 -101 -348 -357 -602 -696 -692
l-85 -23 -2990 0 c-2821 0 -2994 1 -3059 18 -170 43 -300 115 -426 234 -147
139 -238 293 -286 481 l-24 95 0 2962 0 2962 24 94 c71 282 262 518 521 645
50 24 126 54 170 66 l80 23 1971 5 1971 5 109 102 c60 56 275 268 479 472
l370 371 -2555 -1 c-1405 -1 -2601 -5 -2656 -10z"/>
<path d="M6122 7641 c-741 -737 -1489 -1481 -1662 -1655 l-315 -316 540 -541
c297 -297 638 -635 758 -751 l217 -210 1206 1198 c663 660 1413 1405 1667
1656 l462 457 -755 750 c-415 413 -758 750 -763 751 -4 0 -614 -603 -1355
-1339z"/>
<path d="M3630 4428 c-161 -563 -296 -1034 -298 -1047 -4 -22 -3 -23 29 -16
19 4 302 84 629 177 327 93 701 199 830 234 235 65 569 168 603 185 14 8 -20
46 -220 242 -131 128 -469 460 -751 740 -283 279 -517 507 -521 507 -3 0 -139
-460 -301 -1022z"/>
</g>
</svg>
