<?xml version="1.0" standalone="no"?>
<!DOCTYPE svg PUBLIC "-//W3C//DTD SVG 20010904//EN"
 "http://www.w3.org/TR/2001/REC-SVG-20010904/DTD/svg10.dtd">
<svg version="1.0" xmlns="http://www.w3.org/2000/svg"
 width="980.000000pt" height="714.000000pt" viewBox="0 0 980.000000 714.000000"
 preserveAspectRatio="xMidYMid meet">
<metadata>
Created by potrace 1.16, written by Peter Selinger 2001-2019
</metadata>
<g transform="translate(0.000000,714.000000) scale(0.100000,-0.100000)"
fill="#000000" stroke="none">
<path d="M4610 7123 c-598 -47 -1205 -261 -1710 -604 -930 -631 -1518 -1681
-1557 -2781 l-6 -168 -664 -2 -665 -3 888 -888 888 -888 890 890 891 891 -668
0 -667 0 0 88 c0 248 73 612 175 873 142 360 330 646 609 924 445 445 971 699
1593 771 174 20 513 15 683 -11 252 -38 507 -116 736 -225 l122 -57 321 321
c176 177 321 324 321 328 0 11 -220 134 -360 202 -383 182 -751 286 -1175 331
-131 14 -511 18 -645 8z"/>
<path d="M7125 4460 l-890 -890 668 0 667 0 0 -88 c0 -48 -7 -144 -15 -213
-50 -429 -192 -817 -430 -1174 -449 -675 -1162 -1104 -1970 -1186 -149 -15
-500 -7 -645 16 -249 37 -510 117 -736 225 l-122 57 -323 -323 c-260 -261
-321 -326 -309 -334 67 -45 256 -149 350 -194 361 -171 732 -278 1140 -328
142 -17 651 -17 790 0 605 77 1119 267 1600 593 925 626 1519 1684 1557 2772
l6 177 664 0 c364 0 663 3 663 8 0 8 -1762 1772 -1770 1772 -3 0 -406 -400
-895 -890z"/>
</g>
</svg>
