<?xml version="1.0" standalone="no"?>
<!DOCTYPE svg PUBLIC "-//W3C//DTD SVG 20010904//EN"
 "http://www.w3.org/TR/2001/REC-SVG-20010904/DTD/svg10.dtd">
<svg version="1.0" xmlns="http://www.w3.org/2000/svg"
 width="215.000000pt" height="234.000000pt" viewBox="0 0 215.000000 234.000000"
 preserveAspectRatio="xMidYMid meet">
<metadata>
Created by potrace 1.16, written by Peter Selinger 2001-2019
</metadata>
<g transform="translate(0.000000,234.000000) scale(0.100000,-0.100000)"
fill="#000000" stroke="none">
<path d="M126 2214 l-26 -27 0 -962 0 -962 25 -27 24 -26 924 0 924 0 27 26
26 27 0 811 0 811 -178 178 c-174 174 -178 177 -220 177 l-42 0 0 -220 0 -220
-535 0 -535 0 0 220 0 220 -194 0 -193 0 -27 -26z m1523 -849 l174 -174 -16
-25 c-15 -22 -17 -73 -19 -403 l-3 -378 -710 0 -710 0 -3 398 -2 397 352 0
352 0 181 180 c137 136 187 180 206 180 19 0 67 -42 198 -175z"/>
<path d="M1175 1100 l-260 -259 -81 79 c-45 44 -90 80 -100 80 -26 0 -174
-141 -174 -165 0 -26 329 -355 355 -355 28 0 705 678 705 706 0 23 -148 174
-171 174 -7 0 -130 -117 -274 -260z"/>
<path d="M1340 2065 l0 -175 90 0 90 0 0 175 0 175 -90 0 -90 0 0 -175z"/>
</g>
</svg>
